<svg width="149" height="112" viewBox="0 0 149 112" fill="none" xmlns="http://www.w3.org/2000/svg">
<path d="M74.5042 102.172C75.1834 102.172 75.734 101.622 75.734 100.943C75.734 100.264 75.1834 99.7129 74.5042 99.7129C73.825 99.7129 73.2744 100.264 73.2744 100.943C73.2744 101.622 73.825 102.172 74.5042 102.172Z" fill="#777F82"/>
<path d="M38.7773 9.58398V14.9802" stroke="#263238" stroke-width="1.25494" stroke-linecap="round" stroke-linejoin="round"/>
<path d="M36.0664 12.2817H41.4751" stroke="#263238" stroke-width="1.25494" stroke-linecap="round" stroke-linejoin="round"/>
<path d="M19.3125 97.9937V103.39" stroke="#263238" stroke-width="1.25494" stroke-linecap="round" stroke-linejoin="round"/>
<path d="M16.6152 100.692H22.0115" stroke="#263238" stroke-width="1.25494" stroke-linecap="round" stroke-linejoin="round"/>
<path d="M112.039 95.9608H32.4644C31.932 95.9608 31.4058 95.8442 30.9225 95.6209C30.4392 95.3975 30.0103 95.0713 29.6653 94.6659C29.3204 94.2594 29.0678 93.7836 28.925 93.2704C28.7821 92.7571 28.7522 92.2198 28.8376 91.6943L39.0151 29.9769C39.1527 29.118 39.5923 28.3361 40.2547 27.7726C40.9174 27.2088 41.7593 26.9002 42.6293 26.9024H122.204C122.736 26.9024 123.262 27.0183 123.745 27.2421C124.227 27.4659 124.656 27.7922 125 28.1982C125.344 28.6043 125.595 29.0802 125.737 29.5933C125.877 30.1065 125.907 30.6441 125.819 31.1689L115.692 92.8863C115.551 93.7508 115.106 94.5354 114.435 95.1001C113.765 95.6634 112.915 95.9696 112.039 95.9608Z" fill="#FCE69D"/>
<path d="M113.02 25.2879L65.7861 4.19855C64.3936 3.57694 62.7611 4.20162 62.1395 5.59406L47.1693 39.123C46.5476 40.5154 47.1723 42.148 48.5645 42.7696L95.798 63.8587C97.1909 64.4803 98.8237 63.8556 99.4449 62.4634L114.415 28.9345C115.038 27.542 114.413 25.9095 113.02 25.2879Z" fill="white" stroke="#263238" stroke-width="2" stroke-linecap="round" stroke-linejoin="round"/>
<path d="M72.71 31.7836C73.9532 30.0389 75.7614 28.7779 77.8281 28.2142C79.8948 27.6504 82.0927 27.8182 84.0499 28.6896C86.0068 29.561 87.6023 31.0824 88.5662 32.9956C89.5299 34.9089 89.8023 37.0964 89.3377 39.1877" stroke="#263238" stroke-width="2" stroke-linecap="round" stroke-linejoin="round"/>
<path d="M95.2994 29.8889C96.0136 29.8889 96.592 29.31 96.592 28.5963C96.592 27.8824 96.0133 27.3037 95.2994 27.3037C94.5855 27.3037 94.0068 27.8824 94.0068 28.5963C94.0068 29.3102 94.5855 29.8889 95.2994 29.8889Z" fill="#263238"/>
<path d="M76.5748 21.5309C77.2885 21.5309 77.8674 20.9523 77.8674 20.2384C77.8674 19.5247 77.2885 18.9458 76.5748 18.9458C75.8609 18.9458 75.2822 19.5247 75.2822 20.2384C75.2822 20.9523 75.8609 21.5309 76.5748 21.5309Z" fill="#263238"/>
<path d="M111.688 95.9357H31.7239C30.751 95.9319 29.8189 95.5429 29.1322 94.854C28.4452 94.1651 28.0596 93.2314 28.0596 92.2587V35.8747C28.0481 35.3856 28.134 34.899 28.3127 34.4436C28.4914 33.9879 28.7594 33.5729 29.1008 33.2221C29.4419 32.8715 29.8499 32.5924 30.3003 32.4014C30.7508 32.2104 31.2347 32.1113 31.7242 32.1099H60.851C61.5269 32.1125 62.1889 32.3011 62.7648 32.6552C63.3403 33.0096 63.8073 33.5155 64.114 34.1178L68.2677 42.2498C68.5734 42.853 69.0399 43.3598 69.616 43.714C70.1918 44.0683 70.8545 44.2565 71.5306 44.2577H111.688C112.659 44.2577 113.592 44.6437 114.279 45.3309C114.966 46.0182 115.352 46.9502 115.352 47.9222V92.2587C115.352 93.2314 114.967 94.1649 114.279 94.854C113.593 95.5429 112.66 95.9319 111.688 95.9357Z" fill="white" stroke="#263238" stroke-width="2" stroke-linecap="round" stroke-linejoin="round"/>
<path d="M111.432 96H33.569C32.6217 95.9964 31.7141 95.6246 31.0454 94.9662C30.3764 94.3078 30.001 93.4154 30.001 92.4858V38.5982C29.9897 38.1307 30.0734 37.6656 30.2474 37.2304C30.4215 36.7949 30.6824 36.3982 31.0148 36.063C31.347 35.7279 31.7442 35.4612 32.1828 35.2787C32.6214 35.0961 33.0927 35.0014 33.5692 35H61.9307C62.5889 35.0025 63.2335 35.1828 63.7942 35.5212C64.3546 35.8599 64.8093 36.3434 65.1079 36.919L69.1525 44.691C69.4502 45.2675 69.9044 45.7519 70.4654 46.0903C71.026 46.429 71.6713 46.6088 72.3297 46.61H111.432C112.378 46.61 113.286 46.9789 113.955 47.6357C114.624 48.2925 115 49.1833 115 50.1123V92.4858C115 93.4154 114.625 94.3075 113.955 94.9662C113.287 95.6246 112.379 95.9964 111.432 96Z" fill="#FFC94B"/>
<path d="M133.938 1V6.40873" stroke="#263238" stroke-width="1.25494" stroke-linecap="round" stroke-linejoin="round"/>
<path d="M131.228 3.71094H136.636" stroke="#263238" stroke-width="1.25494" stroke-linecap="round" stroke-linejoin="round"/>
<path d="M125.125 96.7596L117.933 89.5673C116.881 88.516 115.485 87.9375 114 87.9375C112.993 87.9375 112.036 88.224 111.188 88.7218L108.412 85.9433C111.878 82.0218 114 76.8848 114 71.25C114 58.9819 104.018 49 91.75 49C79.4819 49 69.5 58.9819 69.5 71.25C69.5 83.5181 79.4819 93.5 91.75 93.5C97.3848 93.5 102.522 91.3779 106.446 87.9125L109.222 90.6909C108.724 91.5337 108.438 92.4932 108.438 93.5C108.438 94.9852 109.016 96.3814 110.067 97.4327L113.088 100.453H122.344C123.873 100.453 125.125 99.2016 125.125 97.6719V96.7596Z" fill="#F7EBC1"/>
<path d="M110.047 71.6875C110.047 69.2817 109.619 66.9788 108.868 64.8289C105.516 58.9633 99.2111 55 91.9688 55C81.2164 55 72.5 63.7164 72.5 74.4688C72.5 81.7111 76.4633 88.0162 82.3289 91.3676C84.4816 92.1186 86.7817 92.5469 89.1875 92.5469C100.71 92.5469 110.047 83.2102 110.047 71.6875Z" fill="#DEDEDE"/>
<path d="M103.973 75.8482C103.258 75.5729 102.451 75.9344 102.176 76.652C100.134 82.0003 94.9141 85.5937 89.1875 85.5937C88.4199 85.5937 87.7969 86.2167 87.7969 86.9843C87.7969 87.7519 88.4199 88.3749 89.1875 88.3749C96.06 88.3749 102.326 84.0612 104.774 77.6421C105.049 76.9245 104.69 76.1208 103.973 75.8482Z" fill="#263238"/>
<path d="M104.484 70.3608C103.717 70.3608 103.094 71.0478 103.094 71.8154C103.094 72.5831 103.717 73.2061 104.484 73.2061C105.252 73.2061 105.875 72.5831 105.875 71.8154V71.6875C105.875 70.9199 105.252 70.3608 104.484 70.3608Z" fill="#263238"/>
<path d="M103.686 86.1833C103.144 86.7284 103.144 87.6073 103.686 88.1524L107.619 92.0851C108.161 92.6274 109.043 92.6274 109.585 92.0851C110.127 91.5427 110.127 90.6611 109.585 90.1187L105.652 86.1833C105.107 85.6381 104.228 85.6381 103.686 86.1833Z" fill="#263238"/>
<path d="M89.75 94.5C77.4819 94.5 67.5 84.5181 67.5 72.25C67.5 59.9819 77.4819 50 89.75 50C102.018 50 112 59.9819 112 72.25C112 84.5181 102.018 94.5 89.75 94.5ZM89.75 52.7812C79.0172 52.7812 70.2812 61.5172 70.2812 72.25C70.2812 82.9828 79.0172 91.7188 89.75 91.7188C100.483 91.7188 109.219 82.9828 109.219 72.25C109.219 61.5172 100.483 52.7812 89.75 52.7812Z" fill="#263238"/>
<path d="M123.125 109.797C122.012 109.797 120.964 109.363 120.174 108.576L109.049 97.4509C108.262 96.661 107.828 95.6125 107.828 94.5C107.828 93.3875 108.262 92.339 109.049 91.5491C109.836 90.7592 110.888 90.3281 112 90.3281C113.113 90.3281 114.161 90.762 114.951 91.5491L126.076 102.674C126.863 103.464 127.297 104.512 127.297 105.625C127.297 106.737 126.863 107.786 126.076 108.576C125.289 109.366 124.237 109.797 123.125 109.797Z" fill="#F7EBC1"/>
<path d="M125.906 107.016C124.794 107.016 123.745 106.582 122.955 105.795L109.049 91.8884C108.996 91.8356 108.96 91.7744 108.91 91.7188C108.217 92.4836 107.825 93.4598 107.825 94.5C107.825 95.6125 108.259 96.661 109.046 97.4509L120.171 108.576C120.964 109.363 122.012 109.797 123.125 109.797C124.237 109.797 125.286 109.363 126.076 108.576C126.571 108.081 126.907 107.475 127.102 106.821C126.718 106.938 126.318 107.016 125.906 107.016Z" fill="#F4D470"/>
<path d="M112 91.7188C112.712 91.7188 113.424 91.9913 113.966 92.5337L125.091 103.659C126.179 104.746 126.179 106.504 125.091 107.591C124.549 108.134 123.837 108.406 123.125 108.406C122.413 108.406 121.701 108.134 121.159 107.591L110.034 96.4663C108.946 95.3789 108.946 93.6211 110.034 92.5337C110.576 91.9913 111.288 91.7188 112 91.7188ZM112 88.9375C110.515 88.9375 109.119 89.516 108.067 90.5673C107.016 91.6186 106.438 93.0148 106.438 94.5C106.438 95.9852 107.016 97.3814 108.067 98.4327L119.192 109.558C120.244 110.609 121.64 111.188 123.125 111.188C124.61 111.188 126.006 110.609 127.058 109.558C128.109 108.506 128.688 107.11 128.688 105.625C128.688 104.14 128.109 102.744 127.058 101.692L115.933 90.5673C114.881 89.516 113.485 88.9375 112 88.9375Z" fill="#263238"/>
</svg>
